#!OML:ASF E:\emotionWalksFemale\Project 1\Capture day 1\Session 1\Female1.ASF
:FULLY-SPECIFIED
:DEGREES
303
root 8.43174 14.6073 23.2828 -172.184 2.60942 -178.956
lowerback 11.3781 0.5971 2.5736
upperback -2.81751 1.23025 0.382225
thorax -9.37899 0.46426 -1.28057
lowerneck -8.52571 -1.97363 -5.12672
upperneck -0.553367 -2.09505 5.2617
head 1.43208 -0.868943 2.50917
rclavicle 1.46604e-014 -2.18663e-015
rhumerus -41.1042 12.8482 -90.4042
rradius 31.6432
rwrist 26.7263
rhand -8.93881 -49.974
rfingers 7.12502
rthumb -162.995 -259.25
lclavicle 1.46604e-014 -2.18663e-015
lhumerus -36.8607 -0.34117 88.2736
lradius 30.7769
lwrist -15.6549
lhand -3.07563 -38.7704
lfingers 7.12502
lthumb 22.6414 -10.0784
rfemur -27.0182 5.881 25.9746
rtibia 49.1009
rfoot -29.1399 -22.5928
rtoes -4.44712
lfemur -30.4191 -5.94978 -22.7468
ltibia 51.5769
lfoot -32.5894 10.4454
ltoes -28.4059
304
root 8.43315 14.5597 23.2781 -172.049 2.40896 -179.026
lowerback 11.5783 0.563491 2.5088
upperback -2.89351 1.18727 0.414427
thorax -9.58302 0.444802 -1.20538
lowerneck -8.97324 -2.01309 -5.11337
upperneck -0.327896 -2.13122 5.10132
head 1.5839 -0.88457 2.45268
rclavicle -1.16786e-015 9.14409e-015
rhumerus -41.2964 13.0832 -90.544
rradius 31.7006
rwrist 25.7317
rhand -10.0105 -50.1224
rfingers 7.12502
rthumb -164.026 -259.484
lclavicle -1.16786e-015 9.14409e-015
lhumerus -36.9284 -0.140668 88.3691
lradius 30.8534
lwrist -15.6559
lhand -3.29233 -38.689
lfingers 7.12502
lthumb 22.4334 -9.97183
rfemur -27.7217 5.84609 25.9661
rtibia 50.2472
rfoot -29.5676 -22.8019
rtoes -3.76654
lfemur -31.1004 -6.25688 -22.7969
ltibia 52.6107
lfoot -32.8484 10.6349
ltoes -27.8708
305
root 8.43468 14.5124 23.2759 -171.93 2.23446 -179.115
lowerback 11.8701 0.540028 2.40557
upperback -3.02912 1.15433 0.431307
thorax -9.90681 0.430004 -1.1284
lowerneck -9.02739 -2.01983 -4.98256
upperneck -0.374888 -2.14132 4.85513
head 1.57079 -0.893506 2.34511
rclavicle 6.38596e-015 3.97569e-016
rhumerus -41.4521 13.2619 -90.6316
rradius 31.7108
rwrist 25.431
rhand -10.4277 -50.1471
rfingers 7.12502
rthumb -164.428 -259.54
lclavicle 6.38596e-015 3.97569e-016
lhumerus -37.1702 0.137038 88.3784
lradius 30.991
lwrist -15.7427
lhand -3.476 -38.6273
lfingers 7.12502
lthumb 22.2571 -9.88898
rfemur -28.3869 5.75388 25.9334
rtibia 51.4064
rfoot -30.1701 -22.9072
rtoes -2.77101
lfemur -31.7599 -6.54502 -22.877
ltibia 53.632
lfoot -33.271 10.7292
ltoes -27.1909
306
root 8.43367 14.4579 23.276 -171.72 2.10851 -179.152
lowerback 12.0393 0.539805 2.42961
upperback -3.12516 1.16302 0.405181
thorax -10.1112 0.428124 -1.17531
lowerneck -9.01214 -2.04959 -4.75459
upperneck -0.680133 -2.17729 4.6261
head 1.46093 -0.910245 2.22353
rclavicle -3.08116e-015 1.47101e-014
rhumerus -41.4245 13.1896 -90.5825
rradius 31.6528
rwrist 25.9935
rhand -10.1096 -49.8525
rfingers 7.12502
rthumb -164.122 -259.222
lclavicle -3.08116e-015 1.47101e-014
lhumerus -37.189 0.369962 88.3505
lradius 31.0482
lwrist -15.8646
lhand -3.57606 -38.7963
lfingers 7.12502
lthumb 22.161 -10.0465
rfemur -29.2076 5.68746 25.9394
rtibia 52.5816
rfoot -30.5472 -23.1517
rtoes -2.75327
lfemur -32.5417 -6.76481 -22.9166
ltibia 54.6786
lfoot -33.7535 10.6877
ltoes -26.278
307
root 8.43446 14.4047 23.2761 -171.47 1.92326 -179.204
lowerback 12.0401 0.535929 2.41726
upperback -3.09886 1.15467 0.402346
thorax -10.083 0.425221 -1.16947
lowerneck -9.40044 -1.81626 -4.69798
upperneck -0.84321 -2.21208 4.50371
head 1.47067 -1.08641 2.16591
rclavicle -1.11816e-015 3.77691e-015
rhumerus -41.2206 13.2856 -90.5168
rradius 31.6884
rwrist 26.1666
rhand -10.0994 -49.2047
rfingers 7.12502
rthumb -164.112 -258.573
lclavicle -1.11816e-015 3.77691e-015
lhumerus -36.9481 0.502017 88.3936
lradius 31.0572
lwrist -15.7389
lhand -3.57801 -39.0945
lfingers 7.12502
lthumb 22.1591 -10.3445
rfemur -30.0915 5.62696 25.9415
rtibia 53.7643
rfoot -30.7867 -23.4876
rtoes -2.87307
lfemur -33.3795 -7.04232 -22.9301
ltibia 55.7168
lfoot -34.2128 10.5347
ltoes -25.3611
308
root 8.43657 14.3493 23.2719 -171.302 1.7327 -179.23
lowerback 12.0067 0.544331 2.37058
upperback -3.02166 1.15677 0.418351
thorax -9.97897 0.431484 -1.12518
lowerneck -9.80774 -1.77304 -4.66148
upperneck -0.916317 -2.15777 4.49236
head 1.51527 -1.06279 2.15707
rclavicle 3.72721e-016 -1.15295e-014
rhumerus -41.0996 13.7695 -90.6561
rradius 31.8728
rwrist 25.6001
rhand -10.3826 -48.9435
rfingers 7.12502
rthumb -164.385 -258.333
lclavicle 3.72721e-016 -1.15295e-014
lhumerus -36.8475 0.517418 88.4028
lradius 31.1993
lwrist -15.4485
lhand -3.8458 -39.4639
lfingers 7.12502
lthumb 21.902 -10.6836
rfemur -30.8279 5.60166 25.9733
rtibia 54.9506
rfoot -31.2434 -23.7358
rtoes -2.1236
lfemur -34.0848 -7.28572 -22.9333
ltibia 56.7333
lfoot -34.6501 10.4096
ltoes -25.1419
309
root 8.43725 14.2894 23.2672 -171.16 1.48722 -179.322
lowerback 12.0445 0.522614 2.28445
upperback -3.00027 1.11589 0.433904
thorax -9.98061 0.417605 -1.05198
lowerneck -10.1354 -1.76571 -4.60705
upperneck -0.967109 -2.15183 4.41627
head 1.55374 -1.06404 2.12152
rclavicle -1.6847e-014 -7.35503e-015
rhumerus -41.0593 14.3881 -90.8447
rradius 31.887
rwrist 24.993
rhand -9.97916 -49.2072
rfingers 7.12502
rthumb -163.996 -258.566
lclavicle -1.6847e-014 -7.35503e-015
lhumerus -36.9286 0.595004 88.4215
lradius 31.4416
lwrist -15.2303
lhand -4.34844 -39.9802
lfingers 7.12502
lthumb 21.4193 -11.1442
rfemur -31.5261 5.55668 25.9258
rtibia 56.1497
rfoot -31.876 -23.9856
rtoes -1.18884
lfemur -34.7591 -7.58902 -23.0141
ltibia 57.7265
lfoot -34.9438 10.4492
ltoes -25.4518
310
root 8.43801 14.2365 23.2636 -171.004 1.18927 -179.509
lowerback 12.2128 0.478063 2.08943
upperback -3.04545 1.03545 0.479954
thorax -10.136 0.390274 -0.878658
lowerneck -10.6002 -1.76631 -4.5791
upperneck -0.877383 -2.14318 4.1981
head 1.6602 -1.06438 2.04446
rclavicle 7.7526e-015 -5.96354e-015
rhumerus -41.1172 14.9538 -90.8887
rradius 32.0216
rwrist 24.7642
rhand -8.76373 -49.726
rfingers 7.12502
rthumb -162.826 -258.987
lclavicle 7.7526e-015 -5.96354e-015
lhumerus -37.0554 0.785181 88.5146
lradius 31.588
lwrist -14.9373
lhand -4.65622 -40.5181
lfingers 7.12502
lthumb 21.1237 -11.6488
rfemur -32.2643 5.42838 25.7948
rtibia 57.346
rfoot -32.3893 -24.277
rtoes -0.565676
lfemur -35.4441 -8.01202 -23.1591
ltibia 58.7097
lfoot -35.1421 10.5366
ltoes -25.8236
311
root 8.44221 14.1815 23.2636 -170.802 0.925825 -179.517
lowerback 12.4353 0.450569 2.03823
upperback -3.1276 1.00702 0.553736
thorax -10.361 0.379991 -0.767798
lowerneck -11.0673 -1.74671 -4.56094
upperneck -0.762128 -2.10675 4.02153
head 1.77582 -1.05012 1.98472
rclavicle -7.30534e-015 -1.19271e-014
rhumerus -41.1358 15.5104 -90.9182
rradius 32.2894
rwrist 24.9519
rhand -8.04894 -49.9436
rfingers 7.12502
rthumb -162.138 -259.143
lclavicle -7.30534e-015 -1.19271e-014
lhumerus -37.2133 0.93824 88.5389
lradius 31.7021
lwrist -14.5282
lhand -5.03452 -40.988
lfingers 7.12502
lthumb 20.7602 -12.0786
rfemur -33.102 5.34466 25.8905
rtibia 58.5199
rfoot -32.6309 -24.7058
rtoes -0.508743
lfemur -36.2198 -8.3306 -23.0806
ltibia 59.7166
lfoot -35.3754 10.4917
ltoes -25.5346
312
root 8.44854 14.1178 23.2703 -170.527 0.600469 -179.347
lowerback 12.6482 0.39023 2.20248
upperback -3.24382 0.970888 0.613567
thorax -10.616 0.351901 -0.791528
lowerneck -11.3745 -1.6867 -4.50885
upperneck -0.746835 -2.02942 3.94547
head 1.82978 -1.01503 1.95403
rclavicle 8.19987e-015 4.37326e-015
rhumerus -41.0672 15.9964 -91.0076
rradius 32.418
rwrist 25.4591
rhand -7.96671 -49.5691
rfingers 7.12502
rthumb -162.059 -258.762
lclavicle 8.19987e-015 4.37326e-015
lhumerus -37.4085 0.983089 88.4298
lradius 31.8637
lwrist -14.1011
lhand -5.43866 -41.1261
lfingers 7.12502
lthumb 20.3719 -12.1746
rfemur -34.0462 5.30717 26.184
rtibia 59.6678
rfoot -32.8129 -25.1206
rtoes -0.247183
lfemur -37.1846 -8.561 -22.7793
ltibia 60.7476
lfoot -35.5661 10.284
ltoes -24.1124
